<?xml version="1.0" encoding="UTF-8"?>
<svg xmlns="http://www.w3.org/2000/svg" xmlns:xlink="http://www.w3.org/1999/xlink" width="243px" height="86px" viewBox="0 0 955 337" version="1.1">
<g id="surface1">
<path style=" stroke:none;fill-rule:nonzero;fill:rgb(70.588235%,64.705882%,58.823529%);fill-opacity:1;" d="M 189.988281 166.8125 C 230.832031 125.941406 271.492188 85.257812 312.464844 44.253906 C 312.625 45.242188 312.816406 45.894531 312.816406 46.546875 C 312.835938 59.804688 312.777344 73.0625 312.882812 86.316406 C 312.902344 88.5625 312.164062 89.40625 310.054688 90.164062 C 303.21875 92.617188 297.925781 97.144531 294.535156 103.585938 C 293.332031 105.871094 291.78125 106.765625 289.394531 107.398438 C 273.148438 111.714844 261.453125 121.109375 256.496094 137.71875 C 255.765625 140.160156 255.308594 142.679688 254.722656 145.167969 C 248.175781 143.929688 240.65625 148.007812 237.699219 154.214844 C 234.96875 159.9375 235.382812 168.230469 244.539062 174.613281 C 239.511719 182.960938 239.019531 191.441406 244.625 199.671875 C 247.964844 204.570312 252.671875 207.832031 258.484375 209.488281 C 259.515625 209.78125 260.875 211.175781 260.96875 212.167969 C 262.746094 230.871094 276.078125 243.828125 293.464844 247.59375 C 296.570312 248.265625 299.851562 248.460938 303.035156 248.351562 C 306.183594 248.246094 309.308594 247.480469 312.640625 246.976562 C 312.640625 257.890625 312.640625 268.714844 312.640625 279.75 C 234.488281 279.75 156.417969 279.75 77.105469 279.75 C 115.070312 241.761719 152.4375 204.378906 189.988281 166.8125 M 120.785156 253.472656 C 120.785156 256.511719 120.785156 259.546875 120.785156 262.40625 C 124.628906 262.40625 127.902344 262.40625 130.996094 262.40625 C 130.996094 258.585938 130.996094 255.058594 130.996094 251.4375 C 128.109375 251.4375 125.503906 251.34375 122.914062 251.5 C 122.1875 251.542969 121.5 252.316406 120.785156 253.472656 M 183.046875 203.859375 C 183.046875 206.160156 183.046875 208.460938 183.046875 210.640625 C 186.851562 210.640625 190.125 210.640625 193.28125 210.640625 C 193.28125 207.09375 193.28125 203.820312 193.28125 200.398438 C 190.546875 200.398438 188.066406 200.542969 185.613281 200.355469 C 183.363281 200.1875 182.765625 201.171875 183.046875 203.859375 M 237.285156 250.683594 C 237.960938 250.085938 239.164062 249.53125 239.214844 248.886719 C 239.429688 246.089844 239.308594 243.265625 239.308594 240.378906 C 235.640625 240.378906 232.367188 240.378906 229.011719 240.378906 C 229.011719 243.859375 229.011719 247.132812 229.011719 250.6875 C 231.664062 250.6875 234.117188 250.6875 237.285156 250.683594 M 173.550781 257.441406 C 171.007812 257.441406 168.464844 257.441406 166.070312 257.441406 C 166.070312 261.269531 166.070312 264.546875 166.070312 267.671875 C 169.625 267.671875 172.898438 267.671875 176.296875 267.671875 C 176.296875 264.796875 176.449219 262.183594 176.203125 259.613281 C 176.128906 258.835938 174.945312 258.164062 173.550781 257.441406 M 279.824219 263.769531 C 279.824219 265.085938 279.824219 266.402344 279.824219 267.722656 C 283.550781 267.722656 286.824219 267.722656 290.097656 267.722656 C 290.097656 264.214844 290.097656 260.9375 290.097656 257.671875 C 286.589844 257.671875 283.316406 257.671875 279.824219 257.671875 C 279.824219 259.617188 279.824219 261.335938 279.824219 263.769531 Z M 279.824219 263.769531 "/>
<path style=" stroke:none;fill-rule:nonzero;fill:rgb(28.627451%,31.764706%,34.509804%);fill-opacity:1;" d="M 389.628906 155.246094 C 392.898438 164.125 393.996094 173.082031 393.835938 182.207031 C 393.679688 191.171875 393.53125 200.140625 393.0625 209.089844 C 392.867188 212.800781 390.585938 215.378906 386.640625 215.574219 C 382.847656 215.761719 378.945312 216.058594 375.257812 215.386719 C 370.9375 214.601562 369.140625 211.753906 369.113281 207.292969 C 369.0625 197.917969 369.128906 188.542969 369.066406 179.167969 C 369.054688 177.453125 368.792969 175.707031 368.402344 174.035156 C 366.929688 167.746094 364.082031 165.378906 358.800781 165.894531 C 353.847656 166.375 351.199219 169.683594 351.125 175.992188 C 351.011719 185.617188 351.097656 195.242188 351.089844 204.867188 C 351.085938 213.226562 348.238281 216.132812 339.9375 216.136719 C 337.839844 216.136719 335.6875 216.085938 333.652344 215.632812 C 328.21875 214.421875 326.398438 212.144531 326.355469 206.566406 C 326.285156 197.191406 326.527344 187.808594 326.226562 178.441406 C 326.128906 175.339844 325.296875 171.992188 323.847656 169.269531 C 322.082031 165.949219 318.136719 165.019531 314.660156 166.105469 C 310.988281 167.253906 308.390625 171.199219 308.355469 176.09375 C 308.285156 185.71875 308.335938 195.34375 308.328125 204.972656 C 308.320312 213.257812 305.449219 216.167969 297.074219 216.125 C 294.488281 216.109375 291.867188 215.878906 289.335938 215.382812 C 285.429688 214.613281 283.683594 211.566406 283.65625 208.023438 C 283.503906 188.398438 283.527344 168.769531 283.628906 149.144531 C 283.652344 144.8125 286.816406 141.546875 291.546875 141.261719 C 295.21875 141.042969 299.347656 140.878906 302.527344 142.332031 C 305.167969 143.542969 306.722656 147.136719 308.625 149.507812 C 318.578125 135.808594 336.925781 139.367188 345.804688 152.941406 C 348.035156 150.871094 350.167969 148.710938 352.488281 146.769531 C 362.789062 138.144531 375.167969 139.492188 384.535156 148.066406 C 386.582031 149.941406 387.847656 152.667969 389.628906 155.246094 Z M 389.628906 155.246094 "/>
<path style=" stroke:none;fill-rule:nonzero;fill:rgb(41.176471%,36.862745%,31.372549%);fill-opacity:1;" d="M 242.875 97.382812 C 183.191406 157.09375 123.683594 216.605469 64.253906 276.191406 C 62.023438 278.429688 59.851562 279.386719 56.738281 279.269531 C 50.875 279.050781 45 279.207031 38.351562 279.207031 C 39.394531 277.953125 39.984375 277.121094 40.695312 276.410156 C 120.335938 196.714844 199.984375 117.023438 279.699219 37.398438 C 280.855469 36.242188 282.871094 35.429688 284.519531 35.371094 C 290.957031 35.140625 297.40625 35.277344 304.957031 35.277344 C 283.816406 56.425781 263.4375 76.8125 242.875 97.382812 Z M 242.875 97.382812 "/>
<path style=" stroke:none;fill-rule:nonzero;fill:rgb(28.627451%,31.764706%,34.509804%);fill-opacity:1;" d="M 808.773438 211.667969 C 798.960938 204.953125 792.097656 196.441406 790.359375 184.628906 C 788.6875 173.230469 791.125 162.761719 799.128906 154.230469 C 802.566406 150.566406 806.550781 147.117188 810.910156 144.683594 C 820.789062 139.175781 830.582031 139.609375 839.921875 147.476562 C 840.039062 146.171875 840.207031 145.148438 840.207031 144.121094 C 840.230469 135.496094 840.214844 126.875 840.222656 118.25 C 840.226562 117.128906 840.148438 115.980469 840.34375 114.886719 C 841.636719 107.71875 843.964844 105.839844 851.417969 105.828125 C 852.914062 105.828125 854.417969 105.773438 855.914062 105.847656 C 861.90625 106.132812 864.964844 109.292969 864.96875 115.296875 C 864.988281 141.914062 864.976562 168.53125 864.976562 195.152344 C 864.976562 198.527344 864.976562 201.898438 864.976562 205.273438 C 864.972656 212.378906 863.582031 214.140625 856.65625 215.820312 C 849.3125 217.601562 843.476562 215.40625 840.226562 209.480469 C 830.429688 218.316406 819.898438 217.613281 808.773438 211.667969 M 837.914062 173.238281 C 834.59375 167.28125 829.40625 165.160156 823.226562 167.226562 C 818.003906 168.976562 814.71875 174.378906 815.335938 179.96875 C 815.925781 185.328125 819.277344 188.636719 823.914062 190.199219 C 828.210938 191.644531 832.652344 190.910156 835.8125 187.117188 C 839.09375 183.175781 840.785156 178.816406 837.914062 173.238281 Z M 837.914062 173.238281 "/>
<path style=" stroke:none;fill-rule:nonzero;fill:rgb(35.686275%,75.294118%,23.529412%);fill-opacity:1;" d="M 191.519531 312.734375 C 178.105469 307.46875 166.019531 309.742188 155.386719 318.648438 C 147.238281 325.476562 134.96875 325.816406 126.414062 320.679688 C 120.152344 316.917969 113.394531 313.824219 106.539062 311.292969 C 101.738281 309.515625 96.363281 310.011719 91.328125 311.25 C 83.261719 313.230469 75.597656 312.789062 68.816406 307.625 C 63.597656 303.652344 60.976562 298.066406 59.84375 291.398438 C 137.214844 291.398438 214.175781 291.398438 291.125 291.398438 C 287.183594 301.734375 278.519531 308.40625 267.222656 307.785156 C 257.648438 307.257812 249.203125 310.8125 241.253906 315.875 C 237.21875 318.445312 233.175781 321.171875 228.789062 322.996094 C 219.582031 326.832031 210.816406 325.722656 202.679688 319.585938 C 199.289062 317.03125 195.421875 315.105469 191.519531 312.734375 Z M 191.519531 312.734375 "/>
<path style=" stroke:none;fill-rule:nonzero;fill:rgb(28.627451%,31.764706%,34.509804%);fill-opacity:1;" d="M 646.582031 215.507812 C 633.539062 213.355469 625.175781 205.253906 620.175781 194.257812 C 611.273438 174.667969 619.523438 153.441406 638.828125 143.953125 C 646.882812 139.996094 657.09375 138.996094 667.34375 148.191406 C 671.886719 141.324219 676.550781 139.476562 684.9375 141.222656 C 689.722656 142.21875 692.355469 145.046875 692.382812 150.050781 C 692.484375 169.054688 692.484375 188.058594 692.386719 207.058594 C 692.359375 212.574219 690.367188 214.863281 683.902344 215.789062 C 676.902344 216.792969 669.648438 215.835938 667.816406 208.90625 C 661.953125 214.683594 655.027344 217.050781 646.582031 215.507812 M 659.726562 189.292969 C 661.203125 187.832031 662.953125 186.558594 664.105469 184.878906 C 667.839844 179.425781 666.695312 173.671875 661.148438 168.734375 C 658.03125 165.960938 650.757812 165.769531 647.554688 168.375 C 642.085938 172.816406 640.535156 179.269531 643.660156 184.582031 C 646.773438 189.871094 652.320312 191.664062 659.726562 189.292969 Z M 659.726562 189.292969 "/>
<path style=" stroke:none;fill-rule:nonzero;fill:rgb(28.627451%,31.764706%,34.509804%);fill-opacity:1;" d="M 875.5 171.300781 C 879.410156 154.105469 890.109375 143.835938 906.75 140.226562 C 918.933594 137.585938 930.140625 140.675781 939.777344 148.789062 C 949.136719 156.671875 953.597656 166.957031 953.421875 178.992188 C 953.140625 198.246094 939.089844 214.117188 919.804688 217.117188 C 900.484375 220.125 880.058594 206.339844 875.9375 187.46875 C 874.828125 182.398438 875.585938 176.917969 875.5 171.300781 M 924.257812 187.234375 C 928.84375 183.042969 929.640625 172.859375 922.632812 167.585938 C 919.171875 164.980469 911.761719 164.140625 907.738281 166.335938 C 902.84375 169.011719 899.515625 175.011719 900.316406 179.867188 C 901.234375 185.425781 903.972656 189.382812 909.617188 191.257812 C 915.285156 193.140625 919.804688 191.511719 924.257812 187.234375 Z M 924.257812 187.234375 "/>
<path style=" stroke:none;fill-rule:nonzero;fill:rgb(28.627451%,31.764706%,34.509804%);fill-opacity:1;" d="M 451.207031 216.699219 C 442.625 218.433594 434.761719 217.234375 426.933594 214.074219 C 414.34375 208.988281 403.695312 193.867188 403.382812 179.488281 C 402.984375 161.167969 416.214844 145.101562 431.699219 141.003906 C 444.839844 137.527344 456.636719 140.023438 467.753906 148.375 C 482.515625 159.457031 485.191406 182.136719 477.703125 196.210938 C 472.042969 206.847656 463.308594 213.746094 451.207031 216.699219 M 450.503906 167.253906 C 447.433594 166.542969 444.371094 165.285156 441.292969 165.246094 C 435.839844 165.171875 431.902344 168.132812 429.972656 173.25 C 428.222656 177.898438 428.210938 182.875 431.628906 186.585938 C 438.65625 194.203125 445.199219 193.820312 452.492188 187.679688 C 458.480469 182.636719 457.40625 172.855469 450.503906 167.253906 Z M 450.503906 167.253906 "/>
<path style=" stroke:none;fill-rule:nonzero;fill:rgb(28.627451%,31.764706%,34.509804%);fill-opacity:1;" d="M 704.433594 174.878906 C 704.433594 166.5 704.414062 158.492188 704.441406 150.488281 C 704.464844 145.132812 706.28125 142.386719 711.417969 141.492188 C 714.917969 140.882812 718.644531 141.054688 722.207031 141.449219 C 726.703125 141.945312 728.507812 145.21875 728.644531 149.234375 C 732.273438 146.921875 735.53125 144.039062 739.335938 142.582031 C 748.929688 138.914062 757.769531 141.605469 765.40625 147.804688 C 775.449219 155.957031 779.476562 167.023438 779.457031 179.746094 C 779.445312 187.503906 779.226562 195.265625 779.507812 203.011719 C 779.941406 215.089844 774.695312 216.753906 763.996094 215.957031 C 756.457031 215.394531 754.699219 212.683594 754.699219 204.855469 C 754.695312 195.972656 754.785156 187.089844 754.664062 178.210938 C 754.574219 171.839844 750.542969 167.015625 744.761719 165.953125 C 738.226562 164.75 732.527344 167.542969 730 173.382812 C 729.429688 174.695312 729.234375 176.261719 729.226562 177.714844 C 729.15625 186.84375 729.210938 195.976562 729.183594 205.105469 C 729.160156 211.820312 726.957031 214.953125 720.425781 215.828125 C 716.722656 216.320312 712.691406 215.871094 709.050781 214.910156 C 705.5625 213.984375 704.453125 210.628906 704.445312 207.152344 C 704.417969 196.519531 704.433594 185.886719 704.433594 174.878906 Z M 704.433594 174.878906 "/>
<path style=" stroke:none;fill-rule:nonzero;fill:rgb(28.627451%,31.764706%,34.509804%);fill-opacity:1;" d="M 609.1875 113.382812 C 608.914062 117.828125 609.070312 122.070312 608.097656 126.03125 C 607.710938 127.613281 604.851562 128.613281 603.058594 129.789062 C 602.707031 130.023438 602.082031 129.835938 601.582031 129.84375 C 591.667969 130.027344 590.816406 131.0625 592.328125 141.808594 C 594.164062 141.691406 596.078125 141.417969 597.980469 141.484375 C 601.410156 141.601562 604.976562 141.402344 608.230469 142.289062 C 613.097656 143.621094 613.976562 149.050781 613.449219 155.019531 C 612.664062 163.886719 609.890625 165.871094 600.859375 165.871094 C 598.011719 165.875 595.164062 165.875 591.90625 165.875 C 591.90625 170.003906 591.976562 174.097656 591.890625 178.191406 C 591.683594 188.152344 591.429688 198.117188 591.144531 208.078125 C 591.011719 212.648438 589.210938 215.199219 584.742188 215.839844 C 581.085938 216.367188 577.226562 216.375 573.570312 215.84375 C 568.980469 215.175781 567.171875 212.511719 567.160156 207.714844 C 567.128906 195.46875 567.148438 183.222656 567.148438 170.976562 C 567.148438 169.492188 567.148438 168.011719 567.148438 166.410156 C 563.007812 165.207031 557.582031 167.046875 555.589844 162.480469 C 554.027344 158.90625 553.734375 154.550781 553.777344 150.550781 C 553.839844 144.261719 556.238281 142.804688 567.148438 141.488281 C 567.148438 138.769531 567.257812 135.949219 567.128906 133.144531 C 566.550781 120.59375 577.949219 105.472656 594.28125 105.824219 C 596.40625 105.867188 598.53125 105.808594 600.652344 105.832031 C 606.214844 105.898438 607.960938 107.390625 609.1875 113.382812 Z M 609.1875 113.382812 "/>
<path style=" stroke:none;fill-rule:nonzero;fill:rgb(35.686275%,75.294118%,23.529412%);fill-opacity:1;" d="M 167.769531 47.316406 C 174.207031 49.828125 180.230469 52.640625 186.496094 54.726562 C 193.757812 57.144531 200.820312 55.441406 206.96875 51.316406 C 214.4375 46.304688 223.417969 49.679688 226.628906 56.503906 C 228.414062 60.296875 230.402344 63.992188 232.175781 67.488281 C 228.726562 71.015625 225.363281 74.453125 221.996094 77.890625 C 205.566406 64.71875 187.296875 59.972656 167.003906 67.472656 C 148.253906 74.398438 137.050781 88.207031 132.335938 107.59375 C 104.828125 98.714844 82.453125 106.113281 65.300781 129.546875 C 60.671875 122.816406 62.1875 111.246094 72.9375 108.3125 C 78.417969 106.816406 83.9375 104.945312 87.554688 100.273438 C 90.144531 96.925781 92.515625 93.199219 94.035156 89.273438 C 97.074219 81.410156 100.855469 79.894531 108.398438 78.796875 C 116.535156 77.613281 124.757812 76.789062 132.746094 74.960938 C 138.996094 73.527344 143.433594 69.039062 146.464844 63.335938 C 148.199219 60.074219 149.71875 56.675781 151.699219 53.570312 C 155.605469 47.445312 160.640625 45.5625 167.769531 47.316406 Z M 167.769531 47.316406 "/>
<path style=" stroke:none;fill-rule:nonzero;fill:rgb(85.490196%,26.27451%,26.27451%);fill-opacity:1;" d="M 92.464844 146.925781 C 95.277344 149.359375 97.898438 151.605469 100.523438 153.855469 C 100.230469 154.289062 99.933594 154.722656 99.636719 155.152344 C 93.367188 155.152344 87.097656 155.152344 80.554688 155.152344 C 80.554688 159.085938 80.554688 162.625 80.554688 166.484375 C 86.746094 166.484375 92.9375 166.484375 99.773438 166.484375 C 95.191406 170.648438 91.105469 174.363281 87.132812 177.96875 C 89.824219 181.148438 91.6875 183.296875 93.492188 185.488281 C 94.925781 187.230469 96.195312 187.265625 97.777344 185.554688 C 101.070312 181.980469 104.503906 178.53125 108.226562 174.675781 C 109.890625 179.941406 107.160156 185.277344 110.664062 190.589844 C 109.355469 191.707031 107.476562 193.144531 105.800781 194.785156 C 100.859375 199.628906 100.742188 199.96875 94.726562 197.070312 C 80.75 190.339844 71.925781 179.597656 69.734375 163.839844 C 67.734375 149.453125 72.355469 137.378906 82.457031 127.394531 C 88.804688 121.121094 96.675781 117.65625 105.601562 116.265625 C 119.570312 114.089844 131.339844 118.671875 141.414062 127.789062 C 146.820312 132.683594 150.367188 139.148438 152.246094 146.320312 C 152.457031 147.117188 151.992188 148.386719 151.398438 149.039062 C 149.058594 151.628906 146.542969 154.058594 144.226562 156.410156 C 139.617188 152.734375 134.316406 155.734375 128.953125 154.097656 C 132.445312 150.945312 135.625 147.9375 138.960938 145.109375 C 141.25 143.160156 141.640625 141.589844 139.105469 139.441406 C 137.234375 137.851562 135.8125 135.734375 134.089844 133.738281 C 129.191406 138.167969 124.902344 142.050781 120.195312 146.308594 C 120.195312 139.71875 120.195312 133.5625 120.195312 127.125 C 116.3125 127.125 112.773438 127.125 108.917969 127.125 C 108.917969 133.324219 108.917969 139.515625 108.917969 146.953125 C 104.445312 141.9375 100.699219 137.738281 97.097656 133.703125 C 93.628906 137.246094 91.027344 139.898438 87.953125 143.035156 C 89.09375 144.011719 90.683594 145.375 92.464844 146.925781 Z M 92.464844 146.925781 "/>
<path style=" stroke:none;fill-rule:nonzero;fill:rgb(28.627451%,31.764706%,34.509804%);fill-opacity:1;" d="M 520.710938 166.597656 C 516.742188 169.132812 516.199219 172.964844 516.164062 176.875 C 516.078125 186.875 516.140625 196.875 516.132812 206.875 C 516.128906 212.195312 514.03125 215.296875 508.761719 215.859375 C 504.648438 216.300781 500.292969 215.910156 496.226562 215.039062 C 492.050781 214.144531 491.515625 209.996094 491.480469 206.613281 C 491.289062 188.238281 491.242188 169.863281 491.457031 151.492188 C 491.550781 143.667969 494.515625 141.183594 502.339844 141.105469 C 503.714844 141.09375 505.089844 141.054688 506.460938 141.117188 C 511.191406 141.328125 514.917969 143.035156 516.410156 148.058594 C 518.757812 146.441406 521.046875 144.847656 523.359375 143.28125 C 530.355469 138.539062 537.628906 139.980469 544.722656 142.753906 C 548.515625 144.234375 548.988281 148.289062 548.84375 151.664062 C 548.710938 154.765625 547.523438 157.941406 546.269531 160.855469 C 543.914062 166.308594 540.203125 167.804688 534.417969 165.816406 C 529.792969 164.226562 525.304688 163.207031 520.710938 166.597656 Z M 520.710938 166.597656 "/>
<path style=" stroke:none;fill-rule:nonzero;fill:rgb(92.54902%,65.098039%,18.039216%);fill-opacity:1;" d="M 120.9375 65.300781 C 118.574219 65.628906 116.542969 65.953125 113.871094 66.375 C 124.617188 44.878906 135.046875 24.003906 145.5625 2.964844 C 168.175781 14.332031 190.503906 25.554688 212.8125 36.765625 C 209.386719 37.984375 205.964844 38.507812 203.371094 40.253906 C 195.671875 45.441406 188.484375 44.15625 180.722656 40.292969 C 175.910156 37.898438 170.5 36.496094 165.207031 35.34375 C 157.996094 33.769531 151.539062 36.46875 146.695312 41.53125 C 143.140625 45.246094 140.972656 50.269531 138.035156 54.605469 C 136.121094 57.433594 134.441406 60.894531 131.726562 62.582031 C 128.804688 64.394531 124.804688 64.46875 120.9375 65.300781 Z M 120.9375 65.300781 "/>
<path style=" stroke:none;fill-rule:nonzero;fill:rgb(35.686275%,75.294118%,23.529412%);fill-opacity:1;" d="M 81.207031 219.351562 C 80.226562 220.332031 79.25 221.015625 78.664062 221.941406 C 74.855469 227.972656 69.417969 227.253906 63.464844 226.277344 C 58.246094 225.421875 53.59375 224.238281 49.53125 220.453125 C 43.625 214.949219 43.398438 208.164062 44.703125 201.234375 C 46.121094 193.710938 46.066406 186.433594 42.484375 179.691406 C 36.59375 168.605469 43.847656 153.421875 57.746094 152.527344 C 56.109375 178.800781 67.972656 197.054688 91.710938 208.835938 C 88.355469 212.195312 84.875 215.679688 81.207031 219.351562 Z M 81.207031 219.351562 "/>
<path style=" stroke:none;fill-rule:nonzero;fill:rgb(85.490196%,26.27451%,26.27451%);fill-opacity:1;" d="M 167.914062 115.585938 C 163.09375 115.585938 158.628906 115.585938 153.933594 115.585938 C 153.933594 118.277344 153.933594 120.613281 153.933594 123.273438 C 150.667969 120.386719 147.582031 117.878906 144.804688 115.0625 C 144.035156 114.28125 143.855469 112.5625 143.96875 111.328125 C 144.769531 102.507812 148.914062 95.070312 154.808594 88.863281 C 161.179688 82.15625 169.175781 78.03125 178.511719 76.488281 C 190.324219 74.539062 200.925781 77.0625 210.574219 84.007812 C 211.070312 84.363281 211.648438 84.613281 212.101562 85.007812 C 212.664062 85.496094 213.136719 86.082031 213.417969 86.386719 C 207.136719 92.667969 200.890625 98.914062 194.460938 105.34375 C 194.460938 99.433594 194.460938 93.53125 194.460938 87.347656 C 190.332031 87.347656 186.546875 87.347656 182.441406 87.347656 C 182.441406 93.542969 182.441406 99.734375 182.441406 107.015625 C 178.011719 102.117188 174.238281 97.945312 170.628906 93.953125 C 167.152344 97.457031 164.539062 100.09375 161.6875 102.96875 C 165.492188 106.621094 169.691406 110.65625 173.894531 114.691406 C 173.800781 114.988281 173.710938 115.289062 173.617188 115.585938 C 171.835938 115.585938 170.054688 115.585938 167.914062 115.585938 Z M 167.914062 115.585938 "/>
<path style=" stroke:none;fill-rule:nonzero;fill:rgb(41.176471%,36.862745%,31.372549%);fill-opacity:1;" d="M 38.824219 244.492188 C 42.3125 241.082031 45.152344 236.230469 49.054688 235.113281 C 52.628906 234.097656 57.351562 237.117188 61.824219 238.433594 C 61.160156 239.199219 60.5 240.054688 59.742188 240.8125 C 47.742188 252.835938 35.777344 264.898438 23.648438 276.796875 C 22.324219 278.097656 20.085938 278.953125 18.203125 279.101562 C 13.90625 279.4375 9.566406 279.207031 4.097656 279.207031 C 16.121094 267.1875 27.378906 255.933594 38.824219 244.492188 Z M 38.824219 244.492188 "/>
<path style=" stroke:none;fill-rule:nonzero;fill:rgb(41.176471%,36.862745%,31.372549%);fill-opacity:1;" d="M 252.941406 35.277344 C 256.871094 35.277344 260.449219 35.277344 265.207031 35.277344 C 261.644531 38.8125 258.851562 41.679688 255.914062 44.390625 C 255.519531 44.757812 254.304688 44.570312 253.648438 44.261719 C 250.445312 42.753906 247.304688 41.113281 244.144531 39.523438 C 246.09375 36.058594 248.84375 34.648438 252.941406 35.277344 Z M 252.941406 35.277344 "/>
<path style=" stroke:none;fill-rule:nonzero;fill:rgb(85.490196%,26.27451%,26.27451%);fill-opacity:1;" d="M 158.875 131.546875 C 157.960938 129.964844 157.234375 128.59375 156.398438 127.011719 C 161.996094 127.011719 167.355469 127.011719 172.804688 127.011719 C 169.105469 130.597656 165.53125 134.058594 161.882812 137.597656 C 161.046875 135.859375 160.054688 133.808594 158.875 131.546875 Z M 158.875 131.546875 "/>
<path style=" stroke:none;fill-rule:nonzero;fill:rgb(92.54902%,65.098039%,18.039216%);fill-opacity:1;" d="M 243.980469 52.292969 C 246.183594 53.042969 246.597656 53.933594 245.003906 55.53125 C 243.789062 56.753906 242.765625 58.164062 241.421875 59.777344 C 239.566406 56 238.054688 52.921875 236.027344 48.785156 C 239.257812 50.175781 241.507812 51.140625 243.980469 52.292969 Z M 243.980469 52.292969 "/>
<path style=" stroke:none;fill-rule:nonzero;fill:rgb(92.54902%,65.098039%,18.039216%);fill-opacity:1;" d="M 236.339844 48.5625 C 236.328125 48.964844 236.121094 49.164062 235.914062 49.363281 C 235.992188 49.027344 236.070312 48.691406 236.339844 48.5625 Z M 236.339844 48.5625 "/>
</g>
</svg>
