<svg version="1.1" id="Layer_1" xmlns="http://www.w3.org/2000/svg" xmlns:xlink="http://www.w3.org/1999/xlink" x="0px" y="0px"
	 width="100%" viewBox="0 0 1273 449"  xml:space="preserve">
	<path fill="#B4A596" opacity="1.000000" stroke="none"
		d="
	M253.250015,222.250015
		C307.696198,167.795593 361.892365,113.591164 416.512970,58.962257
		C416.722656,60.278095 416.980591,61.146263 416.981750,62.014774
		C417.005463,79.678200 416.927795,97.342239 417.069733,115.004547
		C417.093781,117.995697 416.108978,119.121040 413.299652,120.128502
		C404.183502,123.397606 397.128235,129.428482 392.610046,138.012390
		C391.008942,141.054230 388.940582,142.247711 385.760956,143.091705
		C364.102814,148.840485 348.512970,161.357834 341.903442,183.490692
		C340.932739,186.741196 340.322174,190.099258 339.543549,193.413574
		C330.813660,191.762985 320.791321,197.197845 316.847626,205.464767
		C313.208008,213.094330 313.760834,224.142075 325.967651,232.643753
		C319.263641,243.765549 318.608551,255.064651 326.083557,266.030151
		C330.533264,272.557617 336.805847,276.902710 344.557831,279.108063
		C345.931427,279.498779 347.743195,281.358765 347.868805,282.681183
		C350.235321,307.600067 368.005951,324.862579 391.184326,329.879364
		C395.325104,330.775635 399.699402,331.033386 403.942596,330.891144
		C408.138550,330.750488 412.304993,329.730316 416.747620,329.056000
		C416.747620,343.596893 416.747620,358.019531 416.747620,372.721588
		C312.567657,372.721588 208.500504,372.721588 102.778496,372.721588
		C153.388916,322.111145 203.194458,272.305573 253.250015,222.250015
	M161.003220,337.712280
		C161.003220,341.760010 161.003220,345.807739 161.003220,349.616913
		C166.130157,349.616913 170.494217,349.616913 174.615585,349.616913
		C174.615585,344.526031 174.615585,339.824646 174.615585,335.002258
		C170.767487,335.002258 167.295441,334.876495 163.843201,335.082703
		C162.871613,335.140747 161.958191,336.172729 161.003220,337.712280
	M244.000046,271.610901
		C244.000046,274.675079 244.000046,277.739258 244.000046,280.646484
		C249.070633,280.646484 253.435532,280.646484 257.642792,280.646484
		C257.642792,275.922211 257.642792,271.557159 257.642792,267.000916
		C253.995529,267.000916 250.689667,267.192902 247.417236,266.944427
		C244.422714,266.717072 243.626160,268.030029 244.000046,271.610901
	M316.299316,333.997406
		C317.197021,333.201660 318.803619,332.460419 318.869690,331.600769
		C319.156006,327.875732 318.992401,324.116089 318.992401,320.267822
		C314.103027,320.267822 309.739807,320.267822 305.269775,320.267822
		C305.269775,324.902618 305.269775,329.265869 305.269775,333.999664
		C308.803864,333.999664 312.072083,333.999664 316.299316,333.997406
	M231.338837,343.000336
		C227.949570,343.000336 224.560303,343.000336 221.367722,343.000336
		C221.367722,348.100616 221.367722,352.465942 221.367722,356.629486
		C226.107605,356.629486 230.473267,356.629486 234.998764,356.629486
		C234.998764,352.800171 235.203552,349.320801 234.874695,345.892670
		C234.775269,344.856354 233.196899,343.961945 231.338837,343.000336
	M372.999695,351.431885
		C372.999695,353.184662 372.999695,354.937439 372.999695,356.697144
		C377.967682,356.697144 382.331543,356.697144 386.693665,356.697144
		C386.693665,352.023438 386.693665,347.659363 386.693665,343.309814
		C382.018494,343.309814 377.654602,343.309814 372.999695,343.309814
		C372.999695,345.900665 372.999695,348.190063 372.999695,351.431885
	z"/>
	<path fill="#495158" opacity="1.000000" stroke="none"
		d="
	M519.369141,206.838776
		C523.729736,218.671143 525.190063,230.605911 524.976257,242.763184
		C524.766357,254.705566 524.569336,266.655426 523.943665,278.579803
		C523.684204,283.526245 520.647522,286.957581 515.386536,287.219208
		C510.332092,287.470490 505.128998,287.864777 500.214081,286.970886
		C494.455933,285.923615 492.056091,282.127045 492.023529,276.188049
		C491.955048,263.696350 492.045135,251.203751 491.959747,238.712265
		C491.944092,236.428802 491.595459,234.104340 491.073730,231.875305
		C489.112122,223.494995 485.314789,220.341675 478.276215,221.027496
		C471.675964,221.670624 468.143585,226.077118 468.045135,234.480072
		C467.894897,247.303513 468.007965,260.129974 467.998108,272.955170
		C467.989532,284.089081 464.198700,287.963318 453.129303,287.967285
		C450.333557,287.968262 447.465149,287.899109 444.755859,287.296722
		C437.508484,285.685242 435.084320,282.648834 435.028534,275.217743
		C434.934692,262.726379 435.255188,250.225662 434.855469,237.746353
		C434.723053,233.611969 433.618042,229.154480 431.684235,225.522827
		C429.330658,221.102783 424.070831,219.863449 419.435791,221.310516
		C414.542847,222.838089 411.080536,228.097168 411.032288,234.616943
		C410.937378,247.441437 411.008942,260.267120 410.997620,273.092285
		C410.987885,284.132751 407.156647,288.009338 395.992828,287.951721
		C392.550018,287.933960 389.056122,287.625183 385.681488,286.961853
		C380.475372,285.938568 378.145691,281.879120 378.109497,277.160248
		C377.908752,251.011810 377.939514,224.860611 378.074677,198.711334
		C378.104523,192.937515 382.322449,188.591156 388.625885,188.211319
		C393.520660,187.916336 399.026276,187.701065 403.261780,189.636124
		C406.786285,191.246353 408.858185,196.036041 411.394470,199.194458
		C424.660797,180.943405 449.116699,185.684494 460.950012,203.769394
		C463.924042,201.011612 466.770752,198.133682 469.861298,195.547089
		C483.592102,184.055191 500.090759,185.854019 512.577148,197.275253
		C515.306274,199.771637 516.994263,203.406296 519.369141,206.838776
	z"/>
	<path fill="#695E50" opacity="1.000000" stroke="none"
		d="
	M323.750000,129.750000
		C244.193634,209.304901 164.869385,288.591980 85.650261,367.983917
		C82.677315,370.963348 79.783524,372.240356 75.630760,372.084564
		C67.817093,371.791412 59.984596,372.000000 51.120159,372.000000
		C52.512375,370.330139 53.298244,369.222382 54.244999,368.275452
		C160.407639,262.092468 266.574310,155.913513 372.834076,49.827766
		C374.377380,48.286953 377.064362,47.205524 379.261261,47.126671
		C387.840546,46.818703 396.437378,47.000954 406.501648,47.000954
		C378.320984,75.180725 351.160492,102.340355 323.750000,129.750000
	z"/>
	<path fill="#495158" opacity="1.000000" stroke="none"
		d="
	M1078.080078,282.013245
		C1065.000610,273.065674 1055.852295,261.728973 1053.539185,245.987488
		C1051.307739,230.802261 1054.558838,216.853882 1065.227783,205.487366
		C1069.808350,200.607208 1075.121338,196.009048 1080.930908,192.770218
		C1094.101074,185.427841 1107.152344,186.008698 1119.602905,196.489639
		C1119.757080,194.752975 1119.980591,193.385513 1119.983887,192.017517
		C1120.012329,180.528809 1119.995117,169.040009 1120.005981,157.551224
		C1120.007446,156.054581 1119.902222,154.524063 1120.165405,153.066895
		C1121.890015,143.518707 1124.992065,141.016693 1134.925293,141.001053
		C1136.923340,140.997894 1138.925171,140.928116 1140.918823,141.023636
		C1148.907104,141.406387 1152.982910,145.613754 1152.988647,153.612671
		C1153.013794,189.078003 1152.999756,224.543381 1153.000000,260.008728
		C1153.000000,264.504333 1153.002075,268.999969 1152.999512,273.495575
		C1152.994141,282.962799 1151.139893,285.310303 1141.906738,287.547363
		C1132.119263,289.918732 1124.342651,286.995789 1120.007324,279.102386
		C1106.947144,290.874054 1092.914307,289.937775 1078.080078,282.013245
	M1116.925903,230.811310
		C1112.500000,222.876221 1105.583740,220.047684 1097.348877,222.804916
		C1090.388794,225.135330 1086.008301,232.333237 1086.830200,239.781006
		C1087.618164,246.920502 1092.081909,251.329651 1098.266602,253.410812
		C1103.990723,255.336975 1109.910278,254.356262 1114.124146,249.302200
		C1118.500000,244.053665 1120.754517,238.246780 1116.925903,230.811310
	z"/>
	<path fill="#5BC03C" opacity="1.000000" stroke="none"
		d="
	M255.294586,416.671997
		C237.409470,409.655457 221.299484,412.682159 207.127960,424.551575
		C196.268402,433.647034 179.911682,434.101868 168.505447,427.254181
		C160.163574,422.246155 151.151260,418.123108 142.015808,414.747681
		C135.615112,412.382690 128.450897,413.043549 121.740547,414.691162
		C110.984711,417.332123 100.769577,416.741180 91.732300,409.863464
		C84.775940,404.569427 81.278557,397.128784 79.770729,388.241730
		C182.902817,388.241730 285.494202,388.241730 388.065521,388.241730
		C382.812195,402.015747 371.263885,410.902100 356.203552,410.075134
		C343.443665,409.374481 332.184845,414.110260 321.589783,420.852417
		C316.207825,424.277191 310.820374,427.911438 304.974792,430.344208
		C292.698517,435.453278 281.016693,433.972595 270.170502,425.798431
		C265.650726,422.392212 260.494934,419.829926 255.294586,416.671997
	z"/>
	<path fill="#495158" opacity="1.000000" stroke="none"
		d="
	M861.882690,287.129272
		C844.499329,284.263580 833.347351,273.470490 826.686157,258.820129
		C814.817932,232.717743 825.816345,204.434921 851.550049,191.792831
		C862.282227,186.520477 875.893494,185.192078 889.559509,197.443329
		C895.617004,188.292770 901.832581,185.832443 913.013245,188.159637
		C919.389465,189.486816 922.896729,193.250305 922.933350,199.920273
		C923.072327,225.237762 923.071960,250.556900 922.940125,275.874451
		C922.901855,283.221222 920.250488,286.272247 911.631592,287.507690
		C902.299377,288.845367 892.633301,287.569550 890.187988,278.336914
		C882.370544,286.034241 873.141174,289.183807 861.882690,287.129272
	M879.407410,252.203217
		C881.374756,250.257462 883.706604,248.561447 885.242371,246.319992
		C890.220032,239.054703 888.695801,231.391479 881.298218,224.811691
		C877.146484,221.118912 867.452393,220.862213 863.179688,224.331848
		C855.888306,230.252823 853.823486,238.847031 857.990845,245.928650
		C862.137878,252.975769 869.533813,255.362213 879.407410,252.203217
	z"/>
	<path fill="#495158" opacity="1.000000" stroke="none"
		d="
	M1167.027344,228.233902
		C1172.242310,205.319366 1186.501343,191.640991 1208.685181,186.831177
		C1224.926147,183.309891 1239.860840,187.426025 1252.708130,198.239166
		C1265.185059,208.740570 1271.131470,222.444000 1270.897583,238.480362
		C1270.523315,264.133698 1251.793823,285.276825 1226.085938,289.276154
		C1200.333130,293.282471 1173.103638,274.914093 1167.610718,249.774109
		C1166.134277,243.016983 1167.141602,235.717178 1167.027344,228.233902
	M1232.023193,249.458282
		C1238.132568,243.877029 1239.195801,230.306488 1229.855713,223.280350
		C1225.241455,219.809143 1215.364258,218.691406 1210.002686,221.618576
		C1203.477783,225.180923 1199.040283,233.178436 1200.109253,239.646957
		C1201.332520,247.049301 1204.979858,252.324615 1212.505127,254.821716
		C1220.058350,257.328064 1226.086060,255.158371 1232.023193,249.458282
	z"/>
	<path fill="#495158" opacity="1.000000" stroke="none"
		d="
	M601.452026,288.716187
		C590.011536,291.030365 579.528015,289.431458 569.098206,285.221527
		C552.313782,278.446472 538.117126,258.299286 537.701965,239.139236
		C537.173157,214.731049 554.808411,193.323044 575.448608,187.865540
		C592.963440,183.234421 608.688660,186.559952 623.510376,197.685104
		C643.185547,212.453247 646.753662,242.670822 636.771057,261.420258
		C629.224426,275.594543 617.583679,284.782410 601.452026,288.716187
	M600.517090,222.841644
		C596.423706,221.894958 592.339966,220.216904 588.234741,220.162506
		C580.965759,220.066162 575.716797,224.012589 573.148621,230.826691
		C570.813965,237.021255 570.796265,243.653427 575.355835,248.595581
		C584.721802,258.747375 593.443176,258.235748 603.162842,250.055069
		C611.144836,243.336868 609.716064,230.300781 600.517090,222.841644
	z"/>
	<path fill="#495158" opacity="1.000000" stroke="none"
		d="
	M939.000000,233.000000
		C939.000366,221.834213 938.971069,211.168304 939.011658,200.502670
		C939.038818,193.364319 941.459961,189.707062 948.307983,188.515076
		C952.974670,187.702789 957.942749,187.932022 962.691711,188.457596
		C968.686279,189.121017 971.090698,193.482162 971.274170,198.833038
		C976.109985,195.753036 980.451965,191.907974 985.522827,189.969803
		C998.311523,185.081680 1010.092407,188.668762 1020.273071,196.928558
		C1033.659546,207.789276 1039.029175,222.534088 1039.003052,239.485397
		C1038.987061,249.817871 1038.698364,260.161224 1039.069702,270.480347
		C1039.648560,286.571686 1032.656250,288.792908 1018.393799,287.730042
		C1008.346497,286.981262 1006.002869,283.369141 1006.000244,272.935944
		C1005.997253,261.103577 1006.114197,249.269608 1005.953247,237.439423
		C1005.837769,228.952057 1000.461548,222.524017 992.757935,221.106064
		C984.046326,219.502563 976.445740,223.227478 973.076172,231.004623
		C972.317749,232.755112 972.060364,234.841171 972.046021,236.776230
		C971.955933,248.941254 972.029114,261.107330 971.989502,273.272888
		C971.960449,282.215668 969.023926,286.391113 960.318420,287.555054
		C955.381104,288.215149 950.005005,287.612549 945.155823,286.331940
		C940.503601,285.103302 939.027466,280.630127 939.015381,275.996490
		C938.978516,261.831085 939.000793,247.665512 939.000000,233.000000
	z"/>
	<path fill="#495158" opacity="1.000000" stroke="none"
		d="
	M812.036377,151.065521
		C811.671082,156.989059 811.881653,162.638474 810.586792,167.918732
		C810.070923,170.022278 806.259033,171.359711 803.868652,172.925308
		C803.398071,173.233490 802.564941,172.986206 801.899109,172.998413
		C788.683716,173.240341 787.549866,174.618073 789.562073,188.936905
		C792.013916,188.781464 794.563049,188.415314 797.096130,188.503952
		C801.670410,188.664017 806.426453,188.395584 810.759094,189.578476
		C817.250183,191.350647 818.422119,198.588516 817.719116,206.537689
		C816.674011,218.354752 812.972717,220.995956 800.938171,220.999817
		C797.140442,221.001038 793.342712,221.000000 789.000000,221.000000
		C789.000000,226.504929 789.094543,231.959946 788.981201,237.410645
		C788.705200,250.685532 788.366150,263.959381 787.984192,277.231659
		C787.808899,283.322388 785.409180,286.718933 779.453979,287.574585
		C774.576660,288.275391 769.436218,288.287689 764.562012,287.577667
		C758.442749,286.686310 756.031616,283.140472 756.015381,276.748291
		C755.973938,260.431671 756.000610,244.114883 756.000061,227.798172
		C755.999939,225.823990 756.000000,223.849823 756.000000,221.716354
		C750.481018,220.113815 743.246826,222.565201 740.591980,216.482239
		C738.512207,211.716934 738.119995,205.915909 738.174194,200.587250
		C738.259521,192.204010 741.455078,190.266434 756.000000,188.508652
		C756.000000,184.888153 756.147583,181.132919 755.974609,177.392487
		C755.201538,160.674698 770.396973,140.523605 792.170166,140.991791
		C794.999329,141.052628 797.831177,140.973541 800.661255,141.006989
		C808.075378,141.094574 810.400330,143.080688 812.036377,151.065521
	z"/>
	<path fill="#5BC03C" opacity="1.000000" stroke="none"
		d="
	M223.634430,63.040848
		C232.216217,66.390572 240.245605,70.134445 248.595871,72.914444
		C258.277283,76.137604 267.691711,73.867775 275.888275,68.370422
		C285.841431,61.694965 297.812866,66.191376 302.092010,75.283478
		C304.469910,80.335991 307.122589,85.259178 309.487640,89.917984
		C304.888489,94.615616 300.405487,99.194618 295.917511,103.778694
		C274.015961,86.226227 249.665848,79.902069 222.611282,89.895004
		C197.622421,99.124969 182.687225,117.520088 176.401367,143.351395
		C139.734558,131.521362 109.910675,141.379898 87.045235,172.601135
		C80.876137,163.634583 82.894501,148.219223 97.223579,144.310715
		C104.527939,142.318329 111.886765,139.824478 116.708916,133.596481
		C120.161652,129.137161 123.320572,124.172661 125.344872,118.943573
		C129.400574,108.467064 134.439926,106.446152 144.495270,104.984962
		C155.337860,103.409370 166.299377,102.308090 176.950821,99.871361
		C185.280197,97.965858 191.194427,91.983208 195.235275,84.386864
		C197.547882,80.039406 199.574814,75.510910 202.214218,71.372513
		C207.418640,63.212330 214.133224,60.702450 223.634430,63.040848
	z"/>
	<path fill="#DA4343" opacity="1.000000" stroke="none"
		d="
	M123.253891,195.754074
		C127.001442,198.997894 130.499146,201.992844 133.996857,204.987793
		C133.603333,205.564606 133.209808,206.141434 132.816299,206.718262
		C124.459084,206.718262 116.101868,206.718262 107.376328,206.718262
		C107.376328,211.958481 107.376328,216.672028 107.376328,221.815002
		C115.631165,221.815002 123.881783,221.815002 132.996063,221.815002
		C126.888771,227.362183 121.441010,232.310318 116.148697,237.117264
		C119.736778,241.349640 122.217171,244.213150 124.625542,247.136002
		C126.537064,249.455856 128.228516,249.502258 130.333588,247.221024
		C134.726990,242.460007 139.302750,237.867264 144.262909,232.729599
		C146.483398,239.746201 142.842697,246.850723 147.513290,253.929138
		C145.768982,255.421753 143.262695,257.332794 141.028900,259.521851
		C134.442703,265.976166 134.289505,266.425293 126.269470,262.565308
		C107.639763,253.598938 95.877937,239.288406 92.954994,218.289917
		C90.287354,199.125565 96.448189,183.036743 109.914452,169.733627
		C118.375374,161.375214 128.865555,156.756531 140.767227,154.903580
		C159.384048,152.005142 175.071960,158.112778 188.501968,170.261597
		C195.707733,176.779922 200.439285,185.395355 202.942688,194.948380
		C203.220535,196.008621 202.602158,197.702515 201.814316,198.572952
		C198.692108,202.022507 195.337311,205.261566 192.253693,208.390945
		C186.106949,203.493988 179.042374,207.489319 171.894272,205.312729
		C176.545975,201.112900 180.787949,197.105255 185.230270,193.333572
		C188.284439,190.740479 188.804459,188.648575 185.426910,185.781403
		C182.933365,183.664658 181.034531,180.847336 178.737335,178.187698
		C172.211487,184.087662 166.491638,189.258926 160.217484,194.931335
		C160.217484,186.150879 160.217484,177.949265 160.217484,169.376053
		C155.040924,169.376053 150.327408,169.376053 145.184387,169.376053
		C145.184387,177.632431 145.184387,185.882126 145.184387,195.790115
		C139.223740,189.110916 134.228058,183.513031 129.431702,178.138489
		C124.803673,182.859009 121.338547,186.393387 117.241081,190.572723
		C118.758087,191.871124 120.881065,193.688156 123.253891,195.754074
	z"/>
	<path fill="#495158" opacity="1.000000" stroke="none"
		d="
	M694.097046,221.963959
		C688.809448,225.342484 688.085938,230.448151 688.039978,235.659210
		C687.922607,248.980682 688.008667,262.303894 687.996399,275.626404
		C687.989868,282.719482 685.195007,286.847656 678.173767,287.600647
		C672.686462,288.189117 666.881714,287.666534 661.460205,286.506165
		C655.893494,285.314758 655.184509,279.785919 655.137573,275.277985
		C654.882812,250.800552 654.819641,226.316803 655.105713,201.840088
		C655.227600,191.415268 659.180786,188.105118 669.611816,188.003601
		C671.443481,187.985764 673.278625,187.933029 675.106812,188.015213
		C681.410278,188.298645 686.378296,190.571838 688.364319,197.263611
		C691.496765,195.110611 694.549622,192.986618 697.628418,190.900970
		C706.957153,184.581589 716.650330,186.503220 726.104553,190.195618
		C731.162415,192.171021 731.791504,197.573471 731.598877,202.067001
		C731.421570,206.201920 729.840332,210.432205 728.166382,214.313812
		C725.031494,221.582703 720.084595,223.574570 712.373047,220.924225
		C706.206604,218.804871 700.223816,217.449463 694.097046,221.963959
	z"/>
	<path fill="#ECA62E" opacity="1.000000" stroke="none"
		d="
	M161.208145,87.004868
		C158.056168,87.439468 155.348358,87.870415 151.789047,88.436874
		C166.110275,59.795872 180.017761,31.982307 194.034805,3.949649
		C224.176880,19.093439 253.939545,34.046608 283.675201,48.986198
		C279.108795,50.609596 274.549194,51.305248 271.089447,53.634548
		C260.824951,60.545158 251.247894,58.832928 240.898941,53.683178
		C234.486847,50.492447 227.272232,48.625141 220.216522,47.087650
		C210.608551,44.993996 201.999176,48.589249 195.544022,55.332363
		C190.804398,60.283401 187.915085,66.976067 183.998489,72.755219
		C181.445450,76.522385 179.206757,81.135017 175.591949,83.378723
		C171.696655,85.796539 166.360092,85.892380 161.208145,87.004868
	z"/>
	<path fill="#5BC03C" opacity="1.000000" stroke="none"
		d="
	M108.249954,292.250061
		C106.940109,293.559937 105.640411,294.468170 104.859398,295.704163
		C99.782455,303.738586 92.532936,302.782013 84.597191,301.479431
		C77.639069,300.337250 71.437790,298.761993 66.026764,293.722015
		C58.153187,286.388336 57.847725,277.346710 59.589504,268.112305
		C61.480381,258.087402 61.408382,248.395035 56.630920,239.411819
		C48.776558,224.642975 58.448544,204.408508 76.972061,203.221100
		C74.792297,238.222198 90.604324,262.544067 122.250458,278.241058
		C117.775948,282.718323 113.137962,287.359192 108.249954,292.250061
	z"/>
	<path fill="#DA4343" opacity="1.000000" stroke="none"
		d="
	M223.829071,154.000320
		C217.401459,154.000320 211.447433,154.000320 205.188644,154.000320
		C205.188644,157.585281 205.188644,160.697006 205.188644,164.243256
		C200.838577,160.398697 196.724075,157.053772 193.022263,153.301682
		C191.997284,152.262772 191.758591,149.973648 191.908447,148.326279
		C192.977203,136.577576 198.500595,126.665749 206.356232,118.398422
		C214.847931,109.461708 225.507599,103.963890 237.955078,101.909149
		C253.700912,99.309952 267.831268,102.674561 280.692932,111.926460
		C281.351166,112.399948 282.122131,112.731682 282.728516,113.258446
		C283.476654,113.908310 284.107269,114.693459 284.483490,115.094688
		C276.107941,123.466095 267.782440,131.787460 259.211761,140.353882
		C259.211761,132.482330 259.211761,124.613693 259.211761,116.375015
		C253.707092,116.375015 248.663116,116.375015 243.189331,116.375015
		C243.189331,124.630692 243.189331,132.879181 243.189331,142.582260
		C237.287125,136.057846 232.256912,130.497360 227.443848,125.176888
		C222.811615,129.845413 219.327423,133.356918 215.525009,137.189133
		C220.597610,142.057953 226.197113,147.432495 231.796616,152.807053
		C231.674789,153.204803 231.552948,153.602570 231.431122,154.000320
		C229.054962,154.000320 226.678802,154.000320 223.829071,154.000320
	z"/>
	<path fill="#695E50" opacity="1.000000" stroke="none"
		d="
	M51.749992,325.750000
		C56.402275,321.205078 60.185223,314.738342 65.389084,313.254364
		C70.151909,311.896179 76.450363,315.922974 82.411438,317.676666
		C81.523407,318.696716 80.644585,319.835236 79.636574,320.844788
		C63.638836,336.866882 47.688820,352.937988 31.522354,368.788239
		C29.755392,370.520630 26.775919,371.660797 24.263319,371.857819
		C18.536882,372.306915 12.751123,371.999573 5.462540,371.999573
		C21.490583,355.984711 36.495285,340.992340 51.749992,325.750000
	z"/>
	<path fill="#695E50" opacity="1.000000" stroke="none"
		d="
	M337.166870,47.000004
		C342.407501,47.000000 347.173065,47.000000 353.515533,47.000000
		C348.770142,51.709850 345.045380,55.530106 341.131256,59.145351
		C340.603546,59.632786 338.983490,59.384892 338.107422,58.972034
		C333.840424,56.961178 329.654388,54.778481 325.442749,52.658131
		C328.037537,48.040455 331.706726,46.164970 337.166870,47.000004
	z"/>
	<path fill="#DA4343" opacity="1.000000" stroke="none"
		d="
	M211.777161,175.265366
		C210.558655,173.159958 209.591202,171.329926 208.477615,169.223526
		C215.940643,169.223526 223.082230,169.223526 230.346619,169.223526
		C225.412827,174.003250 220.652954,178.614456 215.788910,183.326614
		C214.671280,181.012756 213.349747,178.276764 211.777161,175.265366
	z"/>
	<path fill="#ECA62E" opacity="1.000000" stroke="none"
		d="
	M325.222137,69.674812
		C328.160400,70.673401 328.708588,71.858238 326.584259,73.989143
		C324.964478,75.613945 323.603546,77.496796 321.809448,79.645721
		C319.338379,74.612450 317.325623,70.512619 314.618408,64.998322
		C318.925903,66.849045 321.928680,68.139198 325.222137,69.674812
	z"/>
	<path fill="#ECA62E" opacity="1.000000" stroke="none"
		d="
	M315.039490,64.700851
		C315.019379,65.240326 314.743896,65.504738 314.468445,65.769150
		C314.573669,65.321358 314.678925,64.873566 315.039490,64.700851
	z"/>
</svg>